<svg width="89" height="86" viewBox="0 0 89 86" fill="none" xmlns="http://www.w3.org/2000/svg">
<path d="M84.0877 0H4.91231C3.60948 0 2.36002 0.5001 1.43878 1.39028C0.517545 2.28047 0 3.48781 0 4.74672V81.2545C0.000327783 82.5132 0.518018 83.7202 1.43922 84.6101C2.36042 85.5001 3.6097 86 4.91231 86H47.5371V52.6965H35.9387V39.7177H47.5371V30.1454C47.5371 19.0371 54.5582 12.9896 64.813 12.9896C69.7253 12.9896 73.9466 13.3419 75.1778 13.5008V25.1096L68.0652 25.1132C62.4879 25.1132 61.4088 27.6741 61.4088 31.4318V39.7189H74.7093L72.9775 52.6977H61.4088V86H84.0889C85.3915 85.9997 86.6407 85.4994 87.5617 84.6093C88.4826 83.7191 89 82.512 89 81.2533V4.74672C89 3.48781 88.4825 2.28047 87.5612 1.39028C86.64 0.5001 85.3905 0 84.0877 0V0Z" fill="white"/>
</svg>
