<svg width="97" height="94" viewBox="0 0 97 94" fill="none" xmlns="http://www.w3.org/2000/svg">
<g filter="url(#filter0_d)">
<path d="M48.5 32.7606C46.4044 32.7614 44.356 33.3626 42.6139 34.4881C40.8719 35.6137 39.5143 37.2132 38.7129 39.0842C37.9115 40.9553 37.7022 43.014 38.1115 45C38.5208 46.9859 39.5304 48.8101 41.0125 50.2417C42.4946 51.6733 44.3827 52.6481 46.4381 53.0429C48.4936 53.4377 50.624 53.2347 52.56 52.4596C54.4961 51.6845 56.1508 50.3721 57.315 48.6883C58.4792 47.0045 59.1005 45.025 59.1005 43C59.0984 40.2843 57.9808 37.6805 55.9931 35.7606C54.0055 33.8406 51.3104 32.7616 48.5 32.7606V32.7606ZM73.275 24.8901C72.7355 23.5691 71.9209 22.3693 70.8817 21.3651C69.8425 20.3609 68.6008 19.5737 67.2337 19.0525C63.0618 17.4611 53.1288 17.8181 48.5 17.8181C43.8712 17.8181 33.9481 17.4476 29.7643 19.0525C28.3972 19.5737 27.1555 20.3609 26.1163 21.3651C25.0771 22.3693 24.2625 23.5691 23.723 24.8901C22.0781 28.9213 22.4456 38.5292 22.4456 42.9981C22.4456 47.467 22.0781 57.0633 23.731 61.108C24.2704 62.429 25.085 63.6288 26.1243 64.633C27.1635 65.6372 28.4052 66.4244 29.7723 66.9456C33.9441 68.537 43.8772 68.18 48.5079 68.18C53.1387 68.18 63.0579 68.5504 67.2417 66.9456C68.6088 66.4244 69.8504 65.6372 70.8896 64.633C71.9289 63.6288 72.7435 62.429 73.2829 61.108C74.9417 57.0767 74.5603 47.4689 74.5603 43C74.5603 38.5311 74.9417 28.9367 73.2829 24.892L73.275 24.8901ZM48.5 58.7411C45.2781 58.7411 42.1286 57.8179 39.4497 56.0882C36.7708 54.3586 34.6828 51.9002 33.4498 49.0238C32.2169 46.1475 31.8943 42.9825 32.5228 39.9291C33.1514 36.8756 34.7029 34.0708 36.9811 31.8694C39.2593 29.668 42.162 28.1688 45.3219 27.5614C48.4819 26.954 51.7573 27.2657 54.734 28.4571C57.7106 29.6486 60.2548 31.6661 62.0448 34.2547C63.8348 36.8433 64.7902 39.8867 64.7902 43C64.7928 45.0679 64.3732 47.1159 63.5555 49.0268C62.7378 50.9378 61.5379 52.6741 60.0247 54.1363C58.5115 55.5985 56.7147 56.7578 54.7371 57.548C52.7595 58.3382 50.64 58.7436 48.5 58.7411V58.7411ZM65.4617 30.2728C64.7095 30.2731 63.9742 30.058 63.3486 29.6545C62.7231 29.251 62.2354 28.6773 61.9473 28.006C61.6592 27.3346 61.5836 26.5958 61.7301 25.8829C61.8766 25.1701 62.2386 24.5152 62.7703 24.0012C63.302 23.4872 63.9795 23.137 64.7171 22.9951C65.4548 22.8532 66.2194 22.9258 66.9143 23.2039C67.6092 23.4819 68.2032 23.9528 68.6211 24.5571C69.039 25.1614 69.262 25.8718 69.262 26.5986C69.2641 27.0812 69.1676 27.5595 68.978 28.006C68.7883 28.4525 68.5094 28.8584 68.157 29.2004C67.8047 29.5425 67.3859 29.814 66.9247 29.9993C66.4636 30.1847 65.9691 30.2802 65.4696 30.2804L65.4617 30.2728ZM83.4643 0H13.5357C11.0067 0 8.58124 0.970788 6.79295 2.6988C5.00465 4.42682 4 6.77051 4 9.21429L4 76.7857C4 79.2295 5.00465 81.5732 6.79295 83.3012C8.58124 85.0292 11.0067 86 13.5357 86H83.4643C85.9933 86 88.4188 85.0292 90.2071 83.3012C91.9953 81.5732 93 79.2295 93 76.7857V9.21429C93 6.77051 91.9953 4.42682 90.2071 2.6988C88.4188 0.970788 85.9933 0 83.4643 0V0ZM80.0632 55.6696C79.8069 60.5897 78.6448 64.9492 74.9278 68.5312C71.2109 72.1133 66.7033 73.2593 61.6176 73.4935C56.3709 73.7796 40.641 73.7796 35.3944 73.4935C30.3027 73.2459 25.807 72.121 22.0841 68.5312C18.3612 64.9415 17.1911 60.5801 16.9487 55.6696C16.6527 50.5979 16.6527 35.3963 16.9487 30.3304C17.205 25.4103 18.3532 21.0508 22.0841 17.4687C25.8149 13.8867 30.3225 12.7541 35.3944 12.5199C40.641 12.2339 56.3709 12.2339 61.6176 12.5199C66.7092 12.7675 71.2188 13.8925 74.9278 17.4822C78.6368 21.0719 79.8208 25.4333 80.0632 30.3534C80.3592 35.4059 80.3592 50.5941 80.0632 55.6696Z" fill="white"/>
</g>
<defs>
<filter id="filter0_d" x="0" y="0" width="97" height="94" filterUnits="userSpaceOnUse" color-interpolation-filters="sRGB">
<feFlood flood-opacity="0" result="BackgroundImageFix"/>
<feColorMatrix in="SourceAlpha" type="matrix" values="0 0 0 0 0 0 0 0 0 0 0 0 0 0 0 0 0 0 127 0" result="hardAlpha"/>
<feOffset dy="4"/>
<feGaussianBlur stdDeviation="2"/>
<feComposite in2="hardAlpha" operator="out"/>
<feColorMatrix type="matrix" values="0 0 0 0 0 0 0 0 0 0 0 0 0 0 0 0 0 0 0.25 0"/>
<feBlend mode="normal" in2="BackgroundImageFix" result="effect1_dropShadow"/>
<feBlend mode="normal" in="SourceGraphic" in2="effect1_dropShadow" result="shape"/>
</filter>
</defs>
</svg>
