<svg width="89" height="86" viewBox="0 0 89 86" fill="none" xmlns="http://www.w3.org/2000/svg">
<path d="M47.2812 80.625C40.0964 80.625 33.346 78.9453 27.0303 75.5859L0 86L10.7773 59.8809C7.30078 53.778 5.5625 47.2552 5.5625 40.3125C5.5625 34.8255 6.66341 29.6045 8.86523 24.6494C11.0671 19.6943 14.0366 15.4111 17.7739 11.7998C21.5112 8.18848 25.9438 5.31901 31.0718 3.19141C36.1997 1.0638 41.6029 0 47.2812 0C52.9596 0 58.3628 1.0638 63.4907 3.19141C68.6187 5.31901 73.0513 8.18848 76.7886 11.7998C80.5259 15.4111 83.4954 19.6943 85.6973 24.6494C87.8991 29.6045 89 34.8255 89 40.3125C89 45.7995 87.8991 51.0205 85.6973 55.9756C83.4954 60.9307 80.5259 65.2139 76.7886 68.8252C73.0513 72.4365 68.6187 75.306 63.4907 77.4336C58.3628 79.5612 52.9596 80.625 47.2812 80.625ZM61.1875 48.375H55.625L52.4961 51.0625C49.8887 50.3906 46.6873 48.221 42.8921 44.5537C39.0968 40.8864 36.8516 37.793 36.1562 35.2734L38.9375 32.25V26.875C38.9375 25.9232 38.5898 24.9714 37.8945 24.0195C37.1992 23.0677 36.4315 22.3818 35.5913 21.9619C34.7511 21.542 34.1572 21.5 33.8096 21.8359L29.7246 25.7832C27.4648 27.9668 27.1317 31.3682 28.7251 35.9873C30.3185 40.6064 33.3605 45.0856 37.8511 49.4248C42.3416 53.764 46.9771 56.7035 51.7573 58.2432C56.5376 59.7829 60.0576 59.4609 62.3174 57.2773L66.4023 53.3301C66.75 52.9941 66.7065 52.4202 66.272 51.6084C65.8374 50.7965 65.1276 50.0547 64.1426 49.3828C63.1576 48.7109 62.1725 48.375 61.1875 48.375Z" fill="white"/>
</svg>
